<svg xmlns="http://www.w3.org/2000/svg" viewBox="0 0 40 40" id="icon" fill="currentColor"><path d="M11.273 26.544a.58.58 0 0 0-.747.357l-.793 2.232a.603.603 0 0 0 .011.462c.065.146.185.26.333.314a.574.574 0 0 0 .454-.024.59.59 0 0 0 .299-.348l.793-2.233a.597.597 0 0 0-.35-.76Zm13.1-.106a.582.582 0 0 0-.38.242.603.603 0 0 0-.099.446l.409 2.375c.05.281.29.486.571.487h.105a.582.582 0 0 0 .38-.243c.09-.13.125-.29.098-.446l-.408-2.375a.595.595 0 0 0-.238-.387.574.574 0 0 0-.438-.1Zm-8.726 0a.574.574 0 0 0-.438.1.595.595 0 0 0-.238.386l-.409 2.375a.602.602 0 0 0 .099.446c.09.13.226.217.38.243h.105a.586.586 0 0 0 .571-.487l.409-2.375a.603.603 0 0 0-.099-.446.582.582 0 0 0-.38-.242Zm4.363 0a.589.589 0 0 0-.583.593v2.375c0 .328.261.594.583.594a.589.589 0 0 0 .583-.594v-2.375a.6.6 0 0 0-.17-.42.578.578 0 0 0-.413-.173Zm9.484.463a.591.591 0 0 0-.3-.348.573.573 0 0 0-.453-.025.587.587 0 0 0-.333.314.604.604 0 0 0-.01.462l.792 2.233a.58.58 0 0 0 .741.34.597.597 0 0 0 .356-.744l-.793-2.232Zm3.767-14.903A2.95 2.95 0 0 0 31.045 11H8.975c-.84 0-1.641.363-2.205.998a2.978 2.978 0 0 0-.758 2.268l.712 7.124a3.01 3.01 0 0 0 .973 1.92 2.91 2.91 0 0 0 1.99.752h20.647a2.91 2.91 0 0 0 1.974-.76 3.012 3.012 0 0 0 .965-1.912l.712-7.124a2.98 2.98 0 0 0-.724-2.268ZM11.133 22.875c.043-.33.203-.634.45-.853.247-.219.564-.338.892-.335h15.07c.327-.002.643.117.888.336.245.22.402.522.442.852H11.133Zm20.997-1.603c-.05.447-.26.859-.593 1.155a1.754 1.754 0 0 1-1.203.448h-.269a2.572 2.572 0 0 0-.793-1.692 2.483 2.483 0 0 0-1.715-.683H12.475a2.502 2.502 0 0 0-2.508 2.375h-.28a1.755 1.755 0 0 1-1.196-.452 1.815 1.815 0 0 1-.59-1.151l-.197-1.96h24.612l-.186 1.96Zm.303-3.147H7.587l-.408-3.978c-.05-.495.111-.989.443-1.354.346-.389.838-.61 1.353-.606h22.07c.511 0 .999.22 1.342.606.336.364.502.857.455 1.354l-.409 3.978ZM21.76 15.75h-3.5a.589.589 0 0 0-.583.593c0 .329.261.594.583.594h3.5a.589.589 0 0 0 .583-.594.589.589 0 0 0-.583-.593Z"/></svg>