<svg xmlns="http://www.w3.org/2000/svg" viewBox="0 0 40 40" id="icon" fill="currentColor"><path d="M28 18.239a2.76 2.76 0 0 0 1.082-2.19v-.394h-1.498l2.19-2.505-.594-.52-2.646 3.025h-4.56v.395c.001.858.402 1.668 1.084 2.189a1.98 1.98 0 0 0-1.043 1.364h-2.41V7.757H8.55v11.846h-.79V30.66h1.666l.395 1.58h3.776l.395-1.58h12.02l.394 1.58h3.776l.394-1.58h1.666V19.603h-3.198a1.98 1.98 0 0 0-1.044-1.364Zm.253-1.795a1.979 1.979 0 0 1-1.935 1.58h-1.58a1.978 1.978 0 0 1-1.934-1.58h5.449Zm-4.304 2.37h3.159a1.18 1.18 0 0 1 1.112.79h-5.383a1.182 1.182 0 0 1 1.112-.79Zm-11.451-.79h-1.58v-4.739h1.58v4.739Zm.79-3.159h1.579v3.159h-1.58v-3.159Zm0-.79v-1.58h-3.16v5.529h-.79v-7.898h9.478v7.898h-3.159v-3.949h-2.37Zm5.528-5.528v.79H9.339v-.79h9.477ZM9.339 18.814h9.477v.79H9.339v-.79Zm3.64 12.636h-2.542l-.198-.79h2.938l-.198.79Zm16.584 0h-2.541l-.198-.79h2.937l-.198.79ZM8.55 29.87v-7.897h22.902v7.897H8.55Zm22.902-8.687H8.55v-.79h22.902v.79Zm-5.528-10.661h.79v.867c0 .543-.16 1.072-.461 1.523a1.951 1.951 0 0 0-.329 1.086v.867h-.79v-.867c0-.543.16-1.073.462-1.524.214-.32.329-.698.328-1.085v-.867Zm-2.369-.79h.79v.868c0 .542-.16 1.072-.462 1.523a1.951 1.951 0 0 0-.328 1.085v.868h-.79v-.868c0-.542.16-1.072.461-1.523a1.95 1.95 0 0 0 .329-1.085v-.868ZM9.339 29.081H30.66v-6.319H9.339v6.319Zm20.533-.79h-9.477v-4.739h9.477v4.739Zm-19.744-4.739h9.477v4.739h-9.477v-4.739Zm11.057 3.16v-1.58h.79v1.58h-.79Zm-2.37-1.58v1.58h-.79v-1.58h.79Z"/></svg>