<svg xmlns="http://www.w3.org/2000/svg" viewBox="0 0 60 60" id="icon" fill="currentColor"><path d="M58.8 29.6h-1.2v-18c0-3.36-2.64-6-6-6s-6 2.64-6 6c-.72 0-1.2.48-1.2 1.2s.48 1.2 1.2 1.2H48c.72 0 1.2-.48 1.2-1.2s-.48-1.2-1.2-1.2C48 9.56 49.56 8 51.6 8s3.6 1.56 3.6 3.6v18H48v-2.4c0-.72-.48-1.2-1.2-1.2H32.4c-.72 0-1.2.48-1.2 1.2v2.4h-30c-.72 0-1.2.48-1.2 1.2S.48 32 1.2 32h1.2c.24 8.04 3.36 18.361 8.4 22.681.96.84 2.28 1.32 3.6 1.32v1.2c0 .72.48 1.2 1.2 1.2s1.2-.48 1.2-1.2v-1.2h26.4v1.2c0 .72.48 1.2 1.2 1.2s1.2-.48 1.2-1.2v-1.2c1.32 0 2.64-.48 3.6-1.32 5.04-4.2 8.04-14.52 8.4-22.68h1.2c.72 0 1.2-.48 1.2-1.2s-.48-1.2-1.2-1.2Zm-25.2-1.2h12v10.8h-12V28.4Zm0 13.2h12V44h-12v-2.4Zm14.04 11.16c-.6.48-1.44.84-2.28.84H14.64c-.84 0-1.68-.24-2.28-.84C7.92 49.04 5.16 39.32 4.8 32h26.4v13.2c0 .72.48 1.2 1.2 1.2h14.4c.72 0 1.2-.48 1.2-1.2V32h7.2c-.36 7.44-3.12 17.04-7.56 20.76ZM12 17.6c2.04 0 3.6-1.56 3.6-3.6s-1.56-3.6-3.6-3.6-3.6 1.56-3.6 3.6 1.56 3.6 3.6 3.6Zm0-4.8c.72 0 1.2.48 1.2 1.2s-.48 1.2-1.2 1.2-1.2-.48-1.2-1.2.48-1.2 1.2-1.2Zm13.2-1.2c2.64 0 4.8-2.16 4.8-4.8C30 4.16 27.84 2 25.2 2c-2.64 0-4.8 2.16-4.8 4.8 0 2.64 2.16 4.8 4.8 4.8Zm0-7.2c1.32 0 2.4 1.08 2.4 2.4 0 1.32-1.08 2.4-2.4 2.4-1.32 0-2.4-1.08-2.4-2.4 0-1.32 1.08-2.4 2.4-2.4Zm-6 22.8c2.04 0 3.6-1.56 3.6-3.6S21.24 20 19.2 20s-3.6 1.56-3.6 3.6 1.56 3.6 3.6 3.6Zm0-4.8c.72 0 1.2.48 1.2 1.2s-.48 1.2-1.2 1.2-1.2-.48-1.2-1.2.48-1.2 1.2-1.2Z"/></svg>