<svg xmlns="http://www.w3.org/2000/svg" viewBox="0 0 60 60" id="icon" fill="currentColor"><path d="M7.042 8.001a1.071 1.071 0 0 0-.965 1.067v17.563H4.908C2.208 26.63 0 28.84 0 31.54v13.625a1.07 1.07 0 0 0 1.067 1.069h3.122v4.86a1.072 1.072 0 1 0 2.142 0v-4.86H53.7v4.86a1.069 1.069 0 0 0 1.07 1.095 1.072 1.072 0 0 0 1.072-1.095v-4.86h3.09A1.07 1.07 0 0 0 60 45.166V31.541c0-2.7-2.2-4.91-4.9-4.91h-1.146V9.068a1.07 1.07 0 0 0-1.075-1.067H7.145a1.223 1.223 0 0 0-.103 0Zm1.177 2.142H51.81V26.63h-5.278v-5.714a2.674 2.674 0 0 0-2.656-2.655H31.59c-.595 0-1.143.207-1.59.545a2.618 2.618 0 0 0-1.587-.545H16.132a2.674 2.674 0 0 0-2.656 2.655v5.714H8.218l.001-16.488Zm7.914 10.26h12.282c.304 0 .514.21.514.514v5.714H15.62v-5.714a.49.49 0 0 1 .514-.514Zm15.459 0h12.285a.49.49 0 0 1 .514.514v5.714H31.072v-5.714c0-.303.217-.514.52-.514ZM4.909 28.774H55.1c1.55 0 2.758 1.216 2.758 2.767v2.395H2.143V31.54a2.74 2.74 0 0 1 2.767-2.767h-.001Zm-2.767 7.303h55.717v8.014H2.142v-8.014Z"/></svg>