<svg xmlns="http://www.w3.org/2000/svg" viewBox="0 0 40 40" id="icon" fill="currentColor"><path d="M25.46 14.597a.597.597 0 0 0 .555.82.61.61 0 0 0 .556-.372c.527-1.298.264-2.596.024-3.744-.209-1.028-.394-1.914-.041-2.65a.592.592 0 0 0-.282-.795.594.594 0 0 0-.795.281c-.526 1.101-.281 2.273-.054 3.404.221 1.076.43 2.093.036 3.056ZM20.058 14.644a.597.597 0 1 0 1.137.365c.502-1.58.257-3.128.017-4.63-.209-1.31-.406-2.541-.024-3.57a.602.602 0 0 0-.353-.772.602.602 0 0 0-.771.353c-.49 1.322-.258 2.775-.036 4.175.215 1.358.443 2.763.024 4.073l.006.006ZM14.694 14.597a.597.597 0 0 0 .556.82.61.61 0 0 0 .556-.372c.526-1.298.263-2.596.024-3.744-.21-1.028-.395-1.914-.042-2.65a.592.592 0 0 0-.281-.795.592.592 0 0 0-.796.281c-.526 1.101-.28 2.273-.054 3.404.222 1.076.431 2.093.036 3.056ZM25.124 17.964h-9.57c-1.052 0-2.069.144-3.05.389h-.078c-.03.006-.054.03-.084.042-1.196.317-2.32.807-3.349 1.44a.45.45 0 0 0-.144.09C5.34 22.158 3 26.069 3 30.525c0 1.65 1.34 2.99 2.99 2.99h28.703c1.65 0 2.99-1.34 2.99-2.99 0-6.926-5.633-12.56-12.56-12.56Zm2.865 1.579c.777.204 1.52.484 2.225.837-.933 3.158-2.052 4.54-2.339 4.594-.346-.245-.574-2.303.114-5.431Zm-6.466-.383c-.083 3.26-.807 5.233-1.166 5.389-.4-.155-1.13-2.123-1.214-5.389h2.38Zm-9.276 5.802c-.359-.048-1.411-1.4-2.303-4.307a11.19 11.19 0 0 1 2.171-.957c.7 3.278.365 5.072.132 5.264Zm22.44 7.356H5.985a1.8 1.8 0 0 1-1.794-1.794c0-3.786 1.866-7.13 4.72-9.199.538 1.65 1.782 4.833 3.33 4.833.09 0 .186-.012.276-.036 1.645-.407 1.304-4.18.76-6.734.735-.15 1.495-.228 2.278-.228h2.398c.072 2.692.628 6.58 2.387 6.58 1.758 0 2.315-3.888 2.386-6.58h2.399c.58 0 1.142.06 1.699.144-.563 2.59-.928 6.4.741 6.824.09.024.174.03.264.03 1.375 0 2.655-2.59 3.45-5.168 3.129 2.028 5.21 5.539 5.21 9.54a1.8 1.8 0 0 1-1.794 1.794l-.006-.006Z"/></svg>