<svg xmlns="http://www.w3.org/2000/svg" viewBox="0 0 40 40" id="icon" fill="currentColor"><path d="M33.577 27.823h-8.431a7.01 7.01 0 0 0 3.616-6.128h.875a2.626 2.626 0 1 0 0-5.253h-15.32a.438.438 0 0 0-.438.438v4.815c0 .455.045.908.132 1.355-.436.389-.764.987-.915 1.7-.51-.27-1.146-.429-1.843-.429-1.718 0-3.064.962-3.064 2.189 0 .497.22.95.597 1.313H6.438a.438.438 0 0 0-.438.438v.656a1.533 1.533 0 0 0 1.532 1.532h24.95a1.533 1.533 0 0 0 1.533-1.532v-.656a.438.438 0 0 0-.438-.438Zm-4.815-10.505h.876a1.751 1.751 0 0 1 0 3.501h-.876v-3.501Zm-14.007 0h13.132v4.377a6.135 6.135 0 0 1-6.128 6.128h-.876a6.065 6.065 0 0 1-3.619-1.183c.079-.33.118-.667.117-1.006 0-1.718-.961-3.064-2.188-3.064a1.6 1.6 0 0 0-.37.044 6.215 6.215 0 0 1-.068-.92v-4.376Zm2.734 10.505h-.751c.077-.107.147-.22.21-.336.176.121.357.233.541.336Zm-1.987-2.498c-.458-.459-.21-1.364-.038-1.83.586.215 1.042 1.107 1.042 2.14 0 .731-.229 1.393-.572 1.792.143-.665.157-1.512-.432-2.102Zm-1.054-1.473c-.14.663-.152 1.506.435 2.092.458.458.211 1.363.039 1.828-.267-.099-.516-.341-.706-.694.067-.182.101-.374.101-.568a1.757 1.757 0 0 0-.428-1.131c.047-.62.26-1.173.56-1.527Zm-1.056 2.93a.955.955 0 0 1-.057.123c-.287.526-1.124.918-2.082.918-.732 0-1.393-.229-1.793-.57.239.052.482.08.726.082.487 0 .988-.127 1.377-.515.458-.459 1.363-.211 1.83-.039Zm-2.139-1.585c.732 0 1.393.228 1.793.57-.665-.142-1.513-.156-2.103.433-.458.459-1.364.21-1.83.038.216-.586 1.108-1.041 2.14-1.041Zm21.886 3.72a.657.657 0 0 1-.656.657H7.533a.657.657 0 0 1-.657-.657V28.7h26.263v.218ZM20.413 14.009c.126.37.33.708.599.992a.437.437 0 0 0 .62-.618c-.102-.103-.967-1.043-.001-2.008.836-.837.787-1.688.598-2.254a2.72 2.72 0 0 0-.598-.992.438.438 0 0 0-.621.617c.102.104.967 1.044.002 2.01-.837.836-.787 1.687-.599 2.253ZM17.203 14.01c.126.369.33.707.598.991a.439.439 0 0 0 .62-.617c-.1-.104-.966-1.044 0-2.01.836-.836.786-1.687.598-2.253a2.72 2.72 0 0 0-.599-.992.438.438 0 1 0-.62.618c.101.104.966 1.044.001 2.009-.836.836-.787 1.687-.598 2.253ZM23.623 14.009c.126.37.33.708.598.992a.437.437 0 0 0 .62-.618c-.101-.103-.966-1.043 0-2.008.835-.837.786-1.688.597-2.254a2.727 2.727 0 0 0-.598-.992.438.438 0 0 0-.62.618c.101.104.966 1.044 0 2.008-.835.837-.786 1.688-.597 2.254Z"/></svg>