<svg xmlns="http://www.w3.org/2000/svg" viewBox="0 0 40 40" id="icon" fill="currentColor"><path d="M35.928 21.717c-.006-.41-.14-.826-.396-1.223l-.013-.019c-1.178-1.536-2.829-2.508-5.28-2.995.333-.653.32-1.363.243-2.15-.006-.41-.14-.826-.397-1.223l-.012-.019c-2.221-2.905-6.144-3.801-13.998-3.193-1.446.012-2.732 1.325-3.481 3.533l-4.717 1.01c-2.035.436-3.456 1.364-3.808 2.484-.077.25-.122.57-.038.928.108 1.132.352 2.374 1.337 3.001 1.069.685 2.605 1.03 4.416 1.03.307 0 .62-.012.947-.031-.62.416-1.043.915-1.21 1.459-.076.25-.121.57-.038.928.109 1.132.352 2.374 1.338 3.001 1.068.685 2.605 1.03 4.416 1.03a17.65 17.65 0 0 0 3.257-.326l13.747-2.95.026-.007c3.68-1.075 3.84-2.508 3.66-4.268h.001Zm-6.406-7.238c.301.467.359.934.18 1.382-.2.5-.692.966-1.377 1.344-1.862-.166-4.102-.14-6.81.07-.46.007-.908.141-1.324.397-.154-2.848-1.133-5.184-2.509-6.214 6.54-.358 9.927.531 11.84 3.02Zm-5.78 5.107-4.934 1.063c.66-1.677 1.67-2.695 2.733-2.695.825-.006 1.6.614 2.202 1.632Zm-7.66-8.026c.831 0 1.606.621 2.208 1.632l-4.935 1.063c.653-1.677 1.67-2.695 2.726-2.695ZM4.695 18.12c.269-.87 1.536-1.645 3.308-2.029l10.612-2.278c.544 1.171.89 2.714.928 4.378a5.54 5.54 0 0 0-.986 1.382l-5.664 1.216c-2.937.627-6.508 0-7.801-1.376-.404-.422-.532-.858-.397-1.293Zm1.017 3.162c-.377-.243-.614-.634-.768-1.088 1.19.954 3.322 1.517 5.536 1.517.858 0 1.722-.084 2.554-.263l5.178-1.113a7.407 7.407 0 0 0-.167.454l-5.139 1.1c-3.053.583-5.67.36-7.194-.607Zm4.436 3.225c.268-.87 1.535-1.645 3.308-2.029L24.07 20.2c.576 1.235.928 2.874.928 4.646 0 .301-.013.609-.032.91l-6.624 1.42c-2.938.627-6.509 0-7.802-1.376-.397-.422-.531-.858-.39-1.293Zm21.932.826-13.728 2.944c-3.04.582-5.658.358-7.18-.615-.378-.243-.615-.633-.769-1.087 1.19.953 3.322 1.516 5.536 1.516.858 0 1.722-.083 2.554-.262l13.754-2.95c1.235-.295 2.253-.807 2.899-1.454-.314.743-1.133 1.345-3.066 1.908Zm3.072-3.078c-.34.85-1.517 1.606-3.065 1.97l-6.446 1.383c.013-.256.02-.505.02-.762 0-3.2-1.03-5.881-2.535-7.001 6.54-.352 9.927.531 11.84 3.027.308.467.365.934.186 1.382Z"/></svg>