<svg xmlns="http://www.w3.org/2000/svg" viewBox="0 0 60 60" id="icon" fill="currentColor"><path fill-rule="evenodd" d="M60 9.14V25.1l-4.065.001V49.87h3.237V58H.828v-8.13h3.237V25.1H0V9.141h4.065V2.742h51.87V9.14H60ZM53.676 5H6.323v4.14h47.353V5Zm3.99 6.399H2.183v11.443h55.483V11.4ZM33.651 25.101h-7.529v6.097h7.529V25.1Zm23.262 30.64v-3.614H3.086v3.614h53.827Zm-33.35-11.97c0 2.183 1.58 3.99 3.463 3.99h7c1.883 0 3.464-1.807 3.464-3.99v-6.7H23.563v6.7Zm11.669 6.098h18.444V25.1h-17.69v2.86h9.033v2.26h-9.034v3.236H23.94V25.1H6.323v24.843h19.423c-2.56-.602-4.441-3.162-4.441-6.098V35.94l.075-1.054h18.595c2.258 0 4.14 1.732 4.14 3.84v4.14c0 2.108-1.807 3.84-4.14 3.84h-.98c-.752 1.58-2.107 2.785-3.763 3.162Zm4.893-12.798h-.376v7.303h.376c1.054 0 1.882-.678 1.882-1.582v-4.14c0-.828-.828-1.581-1.882-1.581ZM34.48 18.25c-.452 2.033-2.334 3.538-4.517 3.538-2.183 0-4.065-1.505-4.517-3.538h-1.957v-2.259h1.957c.452-2.032 2.334-3.538 4.517-3.538 2.184 0 3.99 1.506 4.517 3.538h1.958v2.259H34.48Zm-6.625 0c.377.753 1.205 1.28 2.108 1.28s1.732-.527 2.184-1.28h-4.292Zm4.216-2.334c-.377-.752-1.205-1.28-2.108-1.28s-1.731.527-2.183 1.28h4.291Zm-16.11 0h3.236v2.259H15.96v-2.259Zm28.005 0h-3.237v2.259h3.236v-2.259Z" clip-rule="evenodd"/></svg>