<svg xmlns="http://www.w3.org/2000/svg" viewBox="0 0 91 40" id="logo"><path fill="currentColor" fill-rule="evenodd" d="M13.084 23.5v-3.059h-3.022v-2.094H6.168v2.094H3.894V2.883H0V23.5h6.168v15.464h3.894v-9.048h8.78v9.048h3.893V18.347h-3.894v8.51h-8.779V23.5h3.022Z" clip-rule="evenodd"/><path fill="currentColor" d="M34.12 19V2.8h1.52v15.06h4.6V19h-6.12Zm8.756 0 3.42-16.2h1.6l3.44 16.2h-1.5l-.8-4.34h-3.86l-.82 4.34h-1.48Zm2.52-5.44h3.44l-1.72-8.74-1.72 8.74ZM55.268 19V2.8h1.54v8.56l4.32-8.56h1.46l-3.32 6.96 4.04 9.24h-1.5l-3.56-8.1-1.44 2.64V19h-1.54Zm11.453 0V2.8h5.86v1.18h-4.32v6.08h3.52v1.12h-3.52v6.68h4.36V19h-5.9ZM34.1 39V22.8h1.54v7.18h5.1V22.8h1.52V39h-1.52v-7.88h-5.1V39H34.1Zm16.836.2c-1.08 0-1.926-.207-2.54-.62-.6-.427-1.026-1.013-1.28-1.76-.24-.76-.36-1.627-.36-2.6V27.5c0-.987.127-1.84.38-2.56.267-.733.7-1.3 1.3-1.7.614-.4 1.447-.6 2.5-.6 1.04 0 1.86.2 2.46.6.614.4 1.047.967 1.3 1.7.254.72.38 1.573.38 2.56v6.74c0 .973-.126 1.833-.38 2.58-.24.733-.66 1.313-1.26 1.74-.6.427-1.433.64-2.5.64Zm0-1.22c.707 0 1.247-.14 1.62-.42.374-.293.627-.693.76-1.2.147-.52.22-1.12.22-1.8v-7.34c0-.68-.073-1.273-.22-1.78-.133-.507-.386-.893-.76-1.16-.373-.28-.913-.42-1.62-.42-.72 0-1.273.14-1.66.42-.373.267-.633.653-.78 1.16-.133.507-.2 1.1-.2 1.78v7.34c0 .68.067 1.28.2 1.8.147.507.407.907.78 1.2.387.28.94.42 1.66.42Zm12.628 1.22c-1.093 0-1.947-.193-2.56-.58-.6-.4-1.013-.947-1.24-1.64-.227-.707-.34-1.507-.34-2.4V22.8h1.48v11.82c0 .627.067 1.2.2 1.72.147.507.413.907.8 1.2.387.293.94.44 1.66.44.693 0 1.233-.147 1.62-.44.387-.307.653-.713.8-1.22.16-.507.24-1.073.24-1.7V22.8h1.46v11.78c0 .893-.12 1.693-.36 2.4-.24.693-.66 1.24-1.26 1.64-.6.387-1.433.58-2.5.58Zm12.222 0c-.88 0-1.613-.18-2.2-.54a3.504 3.504 0 0 1-1.3-1.54c-.293-.667-.473-1.44-.54-2.32l1.34-.4a8.97 8.97 0 0 0 .36 1.82c.174.533.447.96.82 1.28.374.307.887.46 1.54.46.72 0 1.28-.187 1.68-.56.4-.373.6-.967.6-1.78 0-.72-.18-1.34-.54-1.86-.346-.52-.826-1.067-1.44-1.64l-2.86-2.74c-.506-.493-.88-1-1.12-1.52a4.19 4.19 0 0 1-.36-1.74c0-1.12.334-1.98 1-2.58.667-.6 1.554-.9 2.66-.9.574 0 1.087.073 1.54.22.467.147.86.387 1.18.72.334.32.594.74.78 1.26.187.52.314 1.153.38 1.9l-1.3.34c-.053-.68-.166-1.26-.34-1.74-.16-.493-.42-.867-.78-1.12-.346-.253-.833-.38-1.46-.38-.666 0-1.213.173-1.64.52-.426.347-.64.887-.64 1.62 0 .44.08.84.24 1.2.174.36.474.747.9 1.16l2.86 2.7c.64.6 1.194 1.267 1.66 2 .467.733.7 1.56.7 2.48 0 .813-.16 1.493-.48 2.04-.306.547-.74.96-1.3 1.24-.56.267-1.206.4-1.94.4Zm7.74-.2V22.8h5.86v1.18h-4.32v6.08h3.52v1.12h-3.52v6.68h4.36V39h-5.9Z"/></svg>