<svg xmlns="http://www.w3.org/2000/svg" viewBox="0 0 40 40" id="icon" fill="currentColor"><path d="M34.8 17.891c0-1.038-.637-1.959-1.582-2.339l.001-.078a3.097 3.097 0 0 0-3.702-3.033 2.522 2.522 0 0 0-4.857-.768h-.078a3.097 3.097 0 0 0-3.032 3.701 2.523 2.523 0 0 0-.768 4.856l-.001.08a3.097 3.097 0 0 0 3.702 3.032 2.526 2.526 0 0 0 2.144 2.319v8.394H12.104v-7.972c.69.571 1.563.898 2.472.898a3.89 3.89 0 0 0 3.886-3.885c0-.969-.367-1.901-1.017-2.614a3.886 3.886 0 0 0 1.017-2.615c0-.969-.367-1.902-1.017-2.615a3.886 3.886 0 0 0 1.017-2.614 3.885 3.885 0 0 0-2.845-3.742v-.011A3.89 3.89 0 0 0 11.73 5a3.89 3.89 0 0 0-3.885 3.885v.01A3.885 3.885 0 0 0 5 12.639c0 .969.366 1.902 1.016 2.614A3.885 3.885 0 0 0 5 17.867c0 .968.366 1.901 1.016 2.614A3.887 3.887 0 0 0 5 23.096a3.89 3.89 0 0 0 3.885 3.885c.91 0 1.783-.327 2.473-.898v7.972H5.373a.372.372 0 1 0 0 .745h29.055a.372.372 0 1 0 0-.745h-7.055v-8.392a2.525 2.525 0 0 0 1.966-1.553h.079a3.097 3.097 0 0 0 3.032-3.701 2.527 2.527 0 0 0 2.35-2.518ZM5.745 23.096c0-.888.382-1.74 1.048-2.337a.373.373 0 0 0 0-.555 3.145 3.145 0 0 1-1.048-2.337c0-.889.382-1.74 1.048-2.337a.372.372 0 0 0 0-.555 3.144 3.144 0 0 1-1.048-2.337 3.139 3.139 0 0 1 2.557-3.084.372.372 0 0 0 .302-.397 3.144 3.144 0 0 1 3.127-3.412 3.144 3.144 0 0 1 3.126 3.412.372.372 0 0 0 .302.397 3.139 3.139 0 0 1 2.557 3.084c0 .888-.382 1.74-1.049 2.337a.373.373 0 0 0 0 .555 3.144 3.144 0 0 1 1.049 2.337c0 .888-.382 1.74-1.049 2.337a.373.373 0 0 0 0 .555 3.144 3.144 0 0 1 1.049 2.337 3.144 3.144 0 0 1-3.14 3.14c-.87 0-1.7-.368-2.29-.999l2.031-2.031a.372.372 0 1 0-.526-.527l-1.688 1.688v-4.084l2.214-2.214a.372.372 0 1 0-.526-.527l-1.688 1.688v-4.083l2.214-2.214a.372.372 0 1 0-.526-.527l-1.688 1.688V10a.372.372 0 1 0-.745 0v4.094L9.67 12.406a.372.372 0 1 0-.527.527l2.215 2.214v4.083L9.67 17.542a.372.372 0 1 0-.527.527l2.215 2.214v4.084L9.67 22.679a.372.372 0 1 0-.527.527l2.032 2.032c-.59.63-1.42.998-2.29.998a3.144 3.144 0 0 1-3.14-3.14Zm26.531-3.426c-.082 0-.17-.008-.274-.024a.374.374 0 0 0-.403.506c.11.279.167.57.167.865a2.35 2.35 0 0 1-2.348 2.349c-.1 0-.197-.009-.293-.021a.376.376 0 0 0-.407.275 1.776 1.776 0 0 1-1.346 1.282V19.34l1.97-1.97a.372.372 0 1 0-.526-.526l-1.444 1.443v-1.94a.372.372 0 1 0-.745 0v4.041l-1.477-1.477a.372.372 0 1 0-.527.526l2.004 2.005v3.463a1.78 1.78 0 0 1-1.405-1.737c0-.083.007-.17.023-.274a.373.373 0 0 0-.505-.403c-.28.111-.57.167-.866.167a2.35 2.35 0 0 1-2.328-2.642.372.372 0 0 0-.275-.406 1.778 1.778 0 0 1 .453-3.496c.081 0 .17.008.273.024a.372.372 0 0 0 .404-.506 2.333 2.333 0 0 1-.168-.866 2.35 2.35 0 0 1 2.643-2.328.369.369 0 0 0 .406-.275 1.777 1.777 0 0 1 3.473.725.372.372 0 0 0 .505.405c.279-.111.57-.167.865-.167a2.35 2.35 0 0 1 2.349 2.348c0 .1-.009.198-.02.294a.372.372 0 0 0 .274.406 1.777 1.777 0 0 1-.452 3.496Z"/></svg>