<svg xmlns="http://www.w3.org/2000/svg" viewBox="0 0 40 40" id="icon" fill="currentColor"><path d="M22.985 6.553a.845.845 0 0 0-.692-.2c-.699.108-1.305 1.029-1.419 1.212l-5.216 12.698c-.308-.377-.63-.574-.96-.58h-.015c-.767 0-1.157.976-1.286 1.297-.828 2.071-6.27 12.07-6.326 12.171l-.286.526h26.431l-2.558-5.96c-1.637-4.839-7.001-20.588-7.673-21.164Zm-1.492 1.364c.212-.332.634-.819.908-.86.041-.007.075-.003.097.013.374.48 2.438 6.227 4.572 12.375-.486-.857-1-1.13-1.409-1.18l-1.232-3.193c-.053-.193-.426-1.387-1.477-1.387-1.097 0-1.551 1.328-1.578 1.416l-2.12 9.052c-.676-.203-2.192-.788-2.656-2.062a9.191 9.191 0 0 0-.472-1.094l5.367-13.08Zm-7.436 13.328c.25-.626.488-.85.627-.85h.002c.183.003.666.396 1.206 1.836-.285 1.035-2.8 9.627-7.683 10.316 1.391-2.57 5.148-9.552 5.848-11.302Zm2.313 1.888c.319.425.724.76 1.137 1.017-.258 1.225-1.747 6.937-7.263 8.448 3.518-1.946 5.48-7.366 6.126-9.465Zm1.786 1.367c.367.168.699.28.936.348l-.298 1.27c-.055.235-1.224 4.921-6.395 6.402 4.068-2.124 5.416-6.565 5.758-8.02h-.001Zm1.33 1.78 2.571-10.985c.003-.009.32-.899.896-.899.563 0 .79.865.793.872l1.207 3.14c-.553.293-1.022 1.014-1.346 2.102l-1.389 4.476c-.076.275-1.684 5.752-7.77 7.47 4.03-2.087 5.026-6.122 5.039-6.176Zm-4.32 6.687c6.064-2.032 7.718-7.719 7.735-7.78l1.387-4.47c.375-1.26.872-1.73 1.21-1.75.392-.012.833.472 1.198 1.322l5.44 12.678h-16.97Z"/></svg>