<svg xmlns="http://www.w3.org/2000/svg" viewBox="0 0 40 40" id="icon" fill="currentColor"><path fill-rule="evenodd" d="M13.37 11.57V9.658c0-.916.735-1.658 1.641-1.658h8.336c.906 0 1.64.742 1.64 1.658v1.912h4.521c1.007 0 1.823.825 1.823 1.842v14.732a1.832 1.832 0 0 1-1.823 1.842H8.823A1.832 1.832 0 0 1 7 28.144V13.412c0-1.017.816-1.842 1.823-1.842h4.548Zm1.094-1.912a.55.55 0 0 1 .547-.553h8.336a.55.55 0 0 1 .547.553v1.912h-9.43V9.658Zm-5.64 3.017h2.214v16.206H8.823a.733.733 0 0 1-.729-.737V13.412c0-.407.327-.737.73-.737Zm3.307 16.206V12.675h14.097v16.206H12.13Zm15.19 0h2.188c.402 0 .729-.33.729-.737V13.412a.733.733 0 0 0-.73-.737h-2.187v16.206Z" clip-rule="evenodd"/></svg>