<svg xmlns="http://www.w3.org/2000/svg" viewBox="0 0 40 40" id="icon" fill="currentColor"><path d="M8.909 31.064a26.502 26.502 0 0 0 22.181 0 2.48 2.48 0 0 0 1.313-1.49 2.525 2.525 0 0 0-.203-2.01l-.935-1.652v-.003l-.002-.002L20.434 6.75a.52.52 0 0 0-.87 0L8.736 25.907l-.002.002v.003l-.935 1.653a2.525 2.525 0 0 0-.203 2.01 2.482 2.482 0 0 0 1.312 1.489ZM20 8.013l10.14 17.94a21.496 21.496 0 0 1-20.28 0L20 8.014ZM8.67 28.057l.698-1.233a22.49 22.49 0 0 0 21.265 0l.697 1.233c.207.369.251.808.122 1.21a1.456 1.456 0 0 1-.781.888 25.49 25.49 0 0 1-21.342 0 1.457 1.457 0 0 1-.78-.887 1.521 1.521 0 0 1 .122-1.211Zm6.83-1.56a2 2 0 1 0 0-4 2 2 0 0 0 0 4Zm0-3a1 1 0 1 1 0 2 1 1 0 0 1 0-2Zm5-3a2 2 0 1 0 4 0 2 2 0 0 0-4 0Zm3 0a1 1 0 1 1-2 0 1 1 0 0 1 2 0Zm.974 5.657a.5.5 0 0 1-.632.317l-3-1a.5.5 0 1 1 .316-.95l3 1a.501.501 0 0 1 .316.633Zm-8.827-5.804a.5.5 0 0 1 0-.707l2-2a.5.5 0 1 1 .707.707l-2 2a.5.5 0 0 1-.707 0Zm4-6a.5.5 0 1 1 .707-.707l2 2a.5.5 0 1 1-.707.707l-2-2Z"/></svg>