<svg xmlns="http://www.w3.org/2000/svg" viewBox="0 0 40 40" id="icon" fill="currentColor"><path d="M10.84 10a.482.482 0 1 0 0 .965c9.922 0 17.993 8.071 17.993 17.993a.482.482 0 1 0 .965 0C29.8 18.506 21.294 10 10.84 10Z"/><path d="M10.84 15.499a.482.482 0 1 0 0 .965c6.888 0 12.494 5.606 12.494 12.494a.482.482 0 1 0 .965 0c.002-7.42-6.037-13.459-13.459-13.459Z"/><path d="M10.84 21.001a.482.482 0 1 0 0 .965c3.856 0 6.994 3.139 6.994 6.995a.482.482 0 1 0 .966 0c0-4.391-3.57-7.96-7.96-7.96ZM12.735 25.995a1.977 1.977 0 1 1-1.513 3.654 1.977 1.977 0 0 1 1.513-3.654Z"/></svg>