<svg xmlns="http://www.w3.org/2000/svg" viewBox="0 0 40 40" id="icon" fill="currentColor"><path d="M27.034 7.344A.67.67 0 0 0 26.448 7H13.824a.67.67 0 0 0-.585.344c-1.61 2.898-3.433 6.183-3.222 9.732.08 1.328.458 2.438 1.125 3.3.855 1.105 2.306 1.948 4.198 2.44.196.05.394.098.593.141a19.62 19.62 0 0 0 3.534.433v7.595h-5.018a.67.67 0 0 0 0 1.338h11.375a.67.67 0 0 0 0-1.338h-5.019V23.39c1.19-.04 2.377-.18 3.535-.433.198-.044.396-.09.592-.14 1.892-.493 3.343-1.336 4.198-2.441.667-.863 1.046-1.973 1.125-3.3.212-3.55-1.612-6.834-3.221-9.732Zm-12.816.994h11.837c1.069 1.929 2.19 4.03 2.655 6.197H11.563c.465-2.167 1.586-4.268 2.655-6.197Zm14.702 8.659c-.064 1.053-.349 1.915-.849 2.56-.848 1.097-2.358 1.674-3.475 1.964-.18.046-.361.09-.543.13-1.28.279-2.596.419-3.912.42l-.005-.001h-.006c-1.316 0-2.632-.14-3.911-.42-.183-.04-.363-.083-.543-.13-1.118-.29-2.628-.866-3.476-1.963-.5-.645-.786-1.507-.849-2.56a8.365 8.365 0 0 1 .011-1.124h17.547c.028.374.033.749.01 1.124Z"/></svg>